<svg width="48" height="48" viewBox="0 0 48 48" fill="none" xmlns="http://www.w3.org/2000/svg">
<path d="M8 8.00012C6.89543 8.00012 6 8.89555 6 10.0001V36.0001C6 37.1047 6.89543 38.0001 8 38.0001H40C41.1046 38.0001 42 37.1047 42 36.0001V27.0001V10.0001C42 8.89555 41.1046 8.00012 40 8.00012H8ZM38 23.6668L31.4937 18.2448C30.662 17.5518 29.4299 17.6463 28.7136 18.458L15 34.0001L10 34.0001V12.0001H38V23.6668ZM20.5714 34.0001L30 23.0001L38 29.5456V34.0001H20.5714ZM20 19.0001C20 20.657 18.6569 22.0001 17 22.0001C15.3431 22.0001 14 20.657 14 19.0001C14 17.3433 15.3431 16.0001 17 16.0001C18.6569 16.0001 20 17.3433 20 19.0001Z" fill="#444444"/>
</svg>
