<svg width="48" height="48" viewBox="0 0 48 48" fill="none" xmlns="http://www.w3.org/2000/svg">
<path d="M11.9985 14.0001C7.58026 14.0001 3.99854 17.5818 3.99854 22.0001V26.0001C3.99854 30.4184 7.58026 34.0001 11.9985 34.0001L20.0001 34.0001V30.0001H12.0001C9.79096 30.0001 8.0001 28.2093 8.0001 26.0001V22.0001C8.0001 19.791 9.79096 18.0001 12.0001 18.0001H20.0001V14.0001H11.9985ZM35.9985 34.0001L28.0001 34.0001V30.0001H36.0001C38.2092 30.0001 40.0001 28.2093 40.0001 26.0001V22.0001C40.0001 19.791 38.2092 18.0001 36.0001 18.0001H28.0001V14.0001H35.9985C40.4168 14.0001 43.9985 17.5818 43.9985 22.0001V26.0001C43.9985 30.4184 40.4168 34.0001 35.9985 34.0001ZM32.0001 22.0001H16.0001V26.0001H32.0001V22.0001Z" fill="#444444"/>
</svg>
