<svg width="48" height="48" viewBox="0 0 48 48" fill="none" xmlns="http://www.w3.org/2000/svg">
<path d="M10.3313 14.6095H11.4563V16.004H6.99141V14.6095H8.59688V10.3556L7.15547 11.1642L6.45234 9.96887L8.71406 8.56262H10.3313V14.6095ZM11.2617 36.6571V37.1259C11.2617 37.4384 11.2109 37.7236 11.1094 37.9814C10.8047 38.7236 10.1328 39.0829 9.09375 39.0595L6.44531 39.0009V37.4892H9.33984C9.43359 37.4814 9.48828 37.4267 9.50391 37.3251V36.1181C9.49609 36.0243 9.44141 35.9696 9.33984 35.954H7.18359V34.4657H9.28125C9.375 34.4579 9.42969 34.4032 9.44531 34.3017V33.2353C9.4375 33.1415 9.38281 33.0868 9.28125 33.0712H6.48047V31.5595L9.03516 31.5009C9.41797 31.4931 9.76172 31.5439 10.0664 31.6532C10.8242 31.9267 11.2031 32.5204 11.2031 33.4345V33.8681C11.1953 34.4775 10.9297 34.9267 10.4063 35.2157C10.9688 35.4736 11.2539 35.954 11.2617 36.6571ZM6.62578 25.8338V28.0018H11.4656V26.5018H8.36016V25.869C8.36797 25.6893 8.43437 25.5682 8.55938 25.5057L10.3523 24.5448C10.9148 24.2479 11.2703 23.951 11.4188 23.6541C11.5047 23.4666 11.5477 23.2518 11.5477 23.0096V22.3182C11.5477 21.3182 11.157 20.7323 10.3758 20.5604C10.1648 20.5135 9.93047 20.494 9.67266 20.5018L6.80156 20.5604V22.0604H9.64922C9.75078 22.076 9.80547 22.1307 9.81328 22.2244V22.951C9.80547 23.0369 9.75078 23.1073 9.64922 23.1619L7.72734 24.2049C7.28203 24.4393 6.99687 24.6502 6.87188 24.8377C6.70781 25.0721 6.62578 25.4041 6.62578 25.8338ZM39.9988 10.0001H15.9988V14.0001H39.9988V10.0001ZM39.9984 22.0001H15.9984V26.0001H39.9984V22.0001ZM15.9984 34.0001H39.9984V38.0001H15.9984V34.0001Z" fill="#444444"/>
</svg>
