<svg width="48" height="48" viewBox="0 0 48 48" fill="none" xmlns="http://www.w3.org/2000/svg">
<path d="M8.99997 9C7.34313 9 6 10.3431 6 12C6 13.6569 7.34313 15 8.99997 15C10.6568 15 11.9999 13.6569 11.9999 12C11.9999 10.3431 10.6568 9 8.99997 9ZM8.99997 21C7.34313 21 6 22.3431 6 24C6 25.6569 7.34313 27 8.99997 27C10.6568 27 11.9999 25.6569 11.9999 24C11.9999 22.3431 10.6568 21 8.99997 21ZM6 36C6 34.3431 7.34313 33 8.99997 33C10.6568 33 11.9999 34.3431 11.9999 36C11.9999 37.6569 10.6568 39 8.99997 39C7.34313 39 6 37.6569 6 36ZM39.9984 10H15.9987V14H39.9984V10ZM39.998 22H15.9983V26H39.998V22ZM15.9983 34H39.998V38H15.9983V34Z" fill="#444444"/>
</svg>
