<svg width="48" height="48" viewBox="0 0 48 48" fill="none" xmlns="http://www.w3.org/2000/svg">
<path d="M10 34.0001H38V12.0001H10V34.0001ZM6 10.0001C6 8.89555 6.89543 8.00012 8 8.00012H40C41.1046 8.00012 42 8.89555 42 10.0001V36.0001C42 37.1047 41.1046 38.0001 40 38.0001H8C6.89543 38.0001 6 37.1047 6 36.0001V10.0001ZM28.7687 22.1707C29.3571 22.5671 29.3571 23.4332 28.7687 23.8295L22.5587 28.0124C21.8944 28.4598 21 27.9839 21 27.183V18.8172C21 18.0164 21.8944 17.5404 22.5587 17.9878L28.7687 22.1707Z" fill="#444444"/>
</svg>
